<svg height="480" width="1280" xmlns="http://www.w3.org/2000/svg" xmlns:xlink="http://www.w3.org/1999/xlink"><linearGradient id="a"><stop offset="0" stop-color="#fff"/><stop offset="1" stop-color="#e6e6e6"/></linearGradient><linearGradient id="b"><stop offset="0" stop-color="#fff"/><stop offset=".66390699" stop-color="#f0f0f0" stop-opacity=".941176"/><stop offset="1" stop-color="#dcdcdc"/></linearGradient><linearGradient id="c" gradientUnits="userSpaceOnUse" x1="-37.238918" x2="-37.238918" y1="574.66229" y2="757.68341"><stop offset="0" stop-color="#72d7ee"/><stop offset="1" stop-color="#fff"/></linearGradient><linearGradient id="d" gradientTransform="matrix(1 0 0 1.1064076 0 -51.075648)" gradientUnits="userSpaceOnUse" x1="1331.4286" x2="1331.4286" y1="267.09909" y2="122.14289"><stop offset="0" stop-color="#22a418"/><stop offset="1" stop-color="#b0ed55"/></linearGradient><linearGradient id="e" gradientUnits="userSpaceOnUse" x1="960.31488" x2="960.81995" y1="30.753958" y2="80.969322"><stop offset="0" stop-color="#fff"/><stop offset=".71093988" stop-color="#f0f0f0"/><stop offset="1" stop-color="#dcdcdc"/></linearGradient><linearGradient id="f" gradientUnits="userSpaceOnUse" x1="830.91406" x2="830.91406" xlink:href="#b" y1="92.438049" y2="126.33434"/><linearGradient id="g" gradientUnits="userSpaceOnUse" x1="570.95679" x2="570.95679" xlink:href="#a" y1="76.781364" y2="106.14863"/><linearGradient id="h" gradientUnits="userSpaceOnUse" x1="116.89279" x2="116.89279" xlink:href="#a" y1="32.636337" y2="61.921867"/><linearGradient id="i" gradientUnits="userSpaceOnUse" x1="212.22693" x2="212.22693" xlink:href="#a" y1="77.321426" y2="94.11113"/><linearGradient id="j" gradientTransform="matrix(-2.0767693 0 0 1.8074397 932.84034 -49.245718)" gradientUnits="userSpaceOnUse" x1="116.89279" x2="116.89279" xlink:href="#a" y1="32.636337" y2="61.921867"/><linearGradient id="k" gradientUnits="userSpaceOnUse" x1="252.32039" x2="252.32039" xlink:href="#b" y1="46.644553" y2="80.540844"/><path d="m0 572.36218h1280v480h-1280z" fill="url(#c)" transform="translate(0 -572.36218)"/><g><path d="m109.20982 32.691964c-3.81486-.141305-8.22596 2.762889-7.75005 6.96875-3.263277-1.076449-7.975277-1.171818-9.870447 2.260044-.52095 1.736081.17839 3.294617-2.26299 2.799183-4.06583.510675-8.65651 2.50508-10.17061 6.607054-1.15652 3.515363 2.60346 6.046499 5.69929 6.206391 2.68926.828053 6.33022-1.353219 8.12295-.816277 2.12301 4.311335 7.700087 5.274765 12.031357 4.510075 2.79248-.1225 5.22452-2.70175 6.8625-3.8089 3.32389 1.699259 7.31004 2.29956 10.9317 1.27368 2.56746 3.86802 8.06067 4.04529 12.14796 2.95996 2.27522-.98704 3.92297-1.952274 6.02208-.14324 4.21852 1.47005 10.06313.83497 12.47204-3.370356-.15174-3.657484 5.40117-1.451202 6.56118-4.923296 1.74342-3.696662-2.24308-6.948894-5.29562-8.232096-1.36769-.712702-3.81742-.641482-1.6398-2.28975 2.0107-2.939719-.24328-6.627472-3.11338-7.917518-4.97625-2.49353-11.78032-2.208781-15.9178 1.768136-1.44249 1.101363-1.19592 4.529444-2.54812 1.517809-3.88743-3.946524-10.63742-4.791257-15.40729-1.994649-1.46971-2.264218-4.24401-3.385705-6.87495-3.375z" fill="url(#h)"/><path d="m834.66774 91.395009c-4.29623 0-7.87472 2.308449-8.78125 5.375-1.15486-.449456-2.50402-.71875-3.96875-.71875-4.14214 0-7.5 2.060821-7.5 4.625001 0 .0599-.004.12818 0 .1875-.57431-.1165-1.19327-.1875-1.8125-.1875-3.53807 0-6.47355 2.03347-7.15625 4.71875-.37349-.0382-.73477-.0625-1.125-.0625-3.9942 0-7.25 2.09207-7.25 4.65625s3.2558 4.625 7.25 4.625c.18444 0 .35028-.0225.53125-.0312-.28711.59958-.4375 1.23135-.4375 1.90625 0 3.1066 3.31343 5.625 7.40625 5.625 1.79061 0 3.43774-.47881 4.71875-1.28125 1.21263 2.67292 4.09517 4.64759 7.65625 4.9375 4.89278.39833 9.25489-2.56035 10-6.6875 1.48323 2.02608 4.16121 3.40625 7.25 3.40625 3.79449 0 7.04121-2.05356 8.125-4.875.90065.47435 1.92632.75 3.03125.75 2.53634 0 4.739-1.42202 5.71875-3.46875 1.09056.61569 2.37335.96875 3.75.96875 3.94489 0 7.15625-2.90029 7.15625-6.5h-7.15625l7.15625-.0312c-.004-3.59734-3.21396-6.5-7.15625-6.5-.0963 0-.18588-.003-.28125 0-1.50222-1.68618-4.8829-2.843751-8.8125-2.843751-.48774 0-.96922-.0037-1.4375.03125-.0859-3.494148-2.11563-6.281287-4.625-6.281287-1.46805 0-2.77421.97544-3.625 2.46875-1.15427-2.782964-4.59352-4.8125-8.625-4.8125zm11.125 16.593751c.0122.007.019.0244.0312.0312h-13.5625l13.53125-.0312zm10 4.46875c.007.0124.0238.0189.0312.0312h-3.21875l3.1875-.0312zm-30.6875 5.46875 8.78125.6875c.005.007-.005.0239 0 .0312l-8.78125-.71875z" fill="url(#f)"/><path d="m987.30487 32.181631c-3.90604 0-7.27331 3.771168-8.71875 9.1875-3.43888-2.990825-8.65938-4.90625-14.5-4.90625-7.17155 0-13.40882 2.868468-16.5625 7.09375-1.78669-1.310239-4.20719-2.09375-6.84375-2.09375-5.52285 0-10 3.50437-10 7.84375 0 1.444385.50947 2.805851 1.375 3.96875-7.35365.292001-13.15625 3.341841-13.15625 7.09375 0 3.944891 6.39147 7.15625 14.28125 7.15625 1.53814 0 3.01798-.118822 4.40625-.34375 2.00429 5.181932 7.50693 8.90625 14 8.90625 4.21021 0 7.98934-1.5805 10.6875-4.09375 1.88391 6.236315 9.09257 10.875 17.71875 10.875 6.62969 0 12.40777-2.742809 15.59375-6.84375 2.34935 1.180281 5.06788 1.84375 7.96878 1.84375 6.0922 0 11.3994-2.958074 14.1249-7.34375.9864.38127 2.0541.5625 3.1875.5625 4.6353 0 8.4063-3.50437 8.4063-7.84375 0-4.336516-3.7741-7.875-8.4063-7.875-.1715 0-.331.02175-.5.03125.2087-.570343.3125-1.183783.3125-1.8125 0-3.350944-3.1827-6.0625-7.125-6.0625-1.2429 0-2.4194.244214-3.4374.71875-1.0533-3.673407-5.6849-6.4375-11.21878-6.4375-.95804 0-1.86074.09387-2.75.25-1.34227-5.76486-4.78168-9.875-8.84375-9.875z" fill="url(#e)"/><path d="m892.43688 32.292567c-2.37379.341386-4.10353 2.424498-4.39706 4.989232-1.13637-.790457-2.63896-1.16748-4.20817-.941805-2.62122.376972-4.56548 2.319085-4.80403 4.57419-1.03797-.377698-2.30945-.488726-3.64188-.297102-3.10618.446716-5.38913 2.481573-5.09132 4.552362s3.06166 3.37984 6.16784 2.933124c.96524-.138816 1.84074-.446796 2.59341-.846544.45542 1.349699 2.7474 2.130603 5.33589 1.758339 1.54915-.222791 2.86368-.801122 3.69319-1.541425 1.06775.917583 2.72977 1.375423 4.51769 1.118292 1.21095-.174153 2.2608-.667127 3.06142-1.324281.80714 1.303291 2.39325 2.055249 4.04989 1.816999 1.70214-.244793 2.9873-1.473528 3.35594-3.008355.80884.191312 1.80508.245545 2.85503.09455 2.48494-.357373 4.33905-1.660571 4.16037-2.903045-.17596-1.209409-2.22223-1.934142-4.62426-1.639683.1292-.494117.17163-1.001906.0958-1.529209-.33928-2.34506-2.75166-3.929567-5.37293-3.552588-.62133.08936-1.20706.259599-1.72308.531947-.65379-3.065215-3.26247-5.182108-6.02374-4.784995z" fill="#fff"/><path d="m212.03148 77.320621c2.37379.341386 4.10353 2.424499 4.39706 4.989233 1.13637-.790457 2.63896-1.16748 4.20817-.941805 2.62122.376972 4.56548 2.319085 4.80403 4.57419 1.03797-.377698 2.30945-.488726 3.64188-.297102 3.10618.446716 5.38913 2.481572 5.09132 4.552361s-3.06166 3.37984-6.16784 2.933124c-.96524-.138816-1.84074-.446796-2.59341-.846544-.45542 1.349699-2.7474 2.130603-5.33589 1.758339-1.54915-.222791-2.86368-.801122-3.69319-1.541425-1.06775.917583-2.72977 1.375423-4.51769 1.118292-1.21095-.174153-2.2608-.667127-3.06142-1.324281-.80714 1.303291-2.39325 2.055249-4.04989 1.816999-1.70214-.244793-2.9873-1.473528-3.35594-3.008355-.80884.191312-1.80508.245545-2.85503.09455-2.48494-.357373-4.33905-1.660571-4.16037-2.903045.17596-1.209408 2.22223-1.934141 4.62426-1.639682-.1292-.494117-.17163-1.001906-.0958-1.529209.33928-2.34506 2.75166-3.929567 5.37293-3.552588.62133.08936 1.20706.259599 1.72308.531947.65379-3.065215 3.26247-5.182109 6.02374-4.784996z" fill="url(#i)"/><path d="m580.76261 76.663669c3.81486-.141305 8.22596 2.762889 7.75005 6.96875 3.26328-1.076449 7.97528-1.171818 9.87045 2.260044.52095 1.736084-.17839 3.294614 2.26299 2.799184 4.06583.51067 8.65651 2.50508 10.17061 6.60705 1.15652 3.51537-2.60346 6.046503-5.69929 6.206393-2.68926.82806-6.33022-1.35321-8.12295-.81627-2.12301 4.31133-7.70009 5.27476-12.03136 4.51007-2.79248-.1225-5.22452-2.70175-6.8625-3.8089-3.32389 1.69926-7.31004 2.29956-10.9317 1.27368-2.56746 3.86802-8.06067 4.04529-12.14796 2.95996-2.27522-.98704-3.92297-1.95227-6.02208-.14324-4.21852 1.47005-10.06313.83497-12.47204-3.37035.15174-3.657493-5.40117-1.45121-6.56118-4.923303-1.74342-3.69666 2.24308-6.94889 5.29562-8.2321 1.36769-.7127 3.81742-.64148 1.6398-2.289746-2.0107-2.939719.24328-6.627472 3.11338-7.917518 4.97625-2.49353 11.78032-2.208781 15.9178 1.768136 1.44249 1.101363 1.19592 4.529444 2.54812 1.517809 3.88743-3.946524 10.63742-4.791257 15.40729-1.994649 1.46971-2.264218 4.24401-3.385705 6.87495-3.375z" fill="url(#g)"/><path d="m706.03672 9.8430342c7.92258-.255401 17.08342 4.9937548 16.09505 12.5955948 6.7771-1.945617 16.56283-2.11799 20.49866 4.084893 1.08189 3.137862-.37048 5.954822 4.69971 5.059354 8.44379.923015 17.97757 4.527782 21.12201 11.941852 2.40183 6.353807-5.4068 10.928681-11.83611 11.217678-5.58498 1.496655-13.14641-2.445862-16.86949-1.475372-4.409 7.792477-15.99131 9.533819-24.98637 8.151688-5.79933-.221412-10.85011-4.883249-14.25183-6.884357-6.90294 3.071308-15.18126 4.156316-22.70261 2.3021-5.33202 6.991212-16.74015 7.311618-25.22851 5.349949-4.7251-1.784015-8.14711-3.528617-12.50648-.258897-8.76089 2.657026-20.89879 1.509157-25.90154-6.091716.31513-6.610682-11.21698-2.62296-13.62605-8.89856-3.62068-6.681494 4.65835-12.559707 10.99777-14.879017 2.84038-1.288166 7.92791-1.15944 3.40549-4.138585-4.17576-5.313364.50524-11.978756 6.46578-14.310436 10.33452-4.5069049 24.46499-3.9922382 33.05759 3.195799 2.99572 1.990647 2.48365 8.186698 5.29187 2.743348 8.07328-7.133103 22.09145-8.659907 31.99738-3.605207 3.05225-4.092437 8.81383-6.1194577 14.27768-6.1001088z" fill="url(#j)"/><path d="m256.07406 45.601512c-4.29623 0-7.87472 2.308449-8.78125 5.375-1.15486-.449456-2.50402-.71875-3.96875-.71875-4.14214 0-7.5 2.060821-7.5 4.625001 0 .0599-.004.12818 0 .1875-.57431-.1165-1.19327-.1875-1.8125-.1875-3.53807 0-6.47355 2.03347-7.15625 4.71875-.37349-.0382-.73477-.0625-1.125-.0625-3.9942 0-7.25 2.09207-7.25 4.65625s3.2558 4.625 7.25 4.625c.18444 0 .35028-.0225.53125-.0312-.28711.59958-.4375 1.23135-.4375 1.90625 0 3.1066 3.31343 5.625 7.40625 5.625 1.79061 0 3.43774-.47881 4.71875-1.28125 1.21263 2.67292 4.09517 4.64759 7.65625 4.9375 4.89278.39833 9.25489-2.56035 10-6.6875 1.48323 2.02608 4.16121 3.40625 7.25 3.40625 3.79449 0 7.04121-2.05356 8.125-4.875.90065.47435 1.92632.75 3.03125.75 2.53634 0 4.739-1.42202 5.71875-3.46875 1.09056.61569 2.37335.96875 3.75.96875 3.94489 0 7.15625-2.90029 7.15625-6.5h-7.15625l7.15625-.0312c-.004-3.59734-3.21396-6.5-7.15625-6.5-.0963 0-.18588-.003-.28125 0-1.50222-1.68618-4.8829-2.843751-8.8125-2.843751-.48774 0-.96922-.0037-1.4375.03125-.0859-3.49414-2.11563-6.281279-4.625-6.281279-1.46805 0-2.77421.97544-3.625 2.46875-1.15427-2.782964-4.59352-4.8125-8.625-4.8125zm11.125 16.593751c.0122.007.019.0244.0312.0312h-13.5625l13.53125-.0312zm10 4.46875c.007.0124.0238.0189.0312.0312h-3.21875l3.1875-.0312zm-30.6875 5.46875 8.78125.6875c.005.007-.005.0239 0 .0312l-8.78125-.71875z" fill="url(#k)"/></g><path d="m0 114.88551s69.423622-59.560916 160 0c76.99443 50.3849 148.36353-28.387229 197.14286-69.545617 55.71428-37.9339701 140.33101-5.896591 172.85714 33.192231 30 37.933966 72.25352 62.317766 110 36.353386 38.57143-25.28931 101.89566-37.411521 140-7.9029 50 47.41747 147.14286 39.51455 180 7.9029 38.57143-36.353386 124.2857-42.67572 160 0 51.4286 36.35339 160 0 160 0v365.11451h-1280z" fill="url(#d)"/><g fill="#005108"><path d="m0 143.33154c53.333333 0 84.719651-27.03818 131.71573 1.41701 62.96174 38.1221 135.40675 8.34338 188.28427-1.41701 61.41455-11.33622 130.91033 17.00433 184.24366 17.00433s97.57529-38.25975 150.90863-38.25975c53.33333 0 141.52383 44.03494 192.32488 21.25542 44.24196-19.83839 84.44331 14.17027 137.77664 14.17027 53.33329 0 110.70729-29.75758 164.04059-29.75758 53.3334 0 77.3723 15.58731 130.7056 15.58731v336.66846h-1280z"/><path d="m66.42857-76.071426a7.5 11.071428 0 1 1 -.000003-.01033l-7.499997.01033z" transform="translate(633.87072 211.02546)"/><path d="m66.42857-76.071426a7.5 11.071428 0 1 1 -.000003-.01033l-7.499997.01033z" transform="matrix(1 .76190476 0 1 523.22661 176.0452)"/><path d="m66.42857-76.071426a7.5 11.071428 0 1 1 -.000003-.01033l-7.499997.01033z" transform="matrix(1 0 0 1.2903226 379.05773 250.06793)"/><path d="m66.42857-76.071426a7.5 11.071428 0 1 1 -.000003-.01033l-7.499997.01033z" transform="matrix(1 0 -.25806452 1.3870968 566.94263 238.61496)"/><path d="m66.42857-76.071426a7.5 11.071428 0 1 1 -.000003-.01033l-7.499997.01033z" transform="matrix(1 0 .32258065 1 507.34736 231.57079)"/><path d="m66.42857-76.071426a7.5 11.071428 0 1 1 -.000003-.01033l-7.499997.01033z" transform="matrix(1.047619 0 0 1.3225807 353.24036 252.68465)"/><path d="m66.42857-76.071426a7.5 11.071428 0 1 1 -.000003-.01033l-7.499997.01033z" transform="translate(412.40508 235.02837)"/><path d="m66.42857-76.071426a7.5 11.071428 0 1 1 -.000003-.01033l-7.499997.01033z" transform="translate(471.79279 230.9379)"/><path d="m66.42857-76.071426a7.5 11.071428 0 1 1 -.000003-.01033l-7.499997.01033z" transform="matrix(1 0 .25806452 1 571.38387 215.77509)"/><path d="m66.42857-76.071426a7.5 11.071428 0 1 1 -.000003-.01033l-7.499997.01033z" transform="matrix(1 0 -.25806452 1 553.54977 210.06081)"/><path d="m66.42857-76.071426a7.5 11.071428 0 1 1 -.000003-.01033l-7.499997.01033z" transform="translate(513.61439 221.9078)"/><path d="m66.42857-76.071426a7.5 11.071428 0 1 1 -.000003-.01033l-7.499997.01033z" transform="matrix(1 0 -.51612905 1 558.4102 206.20838)"/><path d="m66.42857-76.071426a7.5 11.071428 0 1 1 -.000003-.01033l-7.499997.01033z" transform="matrix(1.4285714 0 .25806452 1.2903226 422.15858 254.71785)"/><path d="m66.42857-76.071426a7.5 11.071428 0 1 1 -.000003-.01033l-7.499997.01033z" transform="matrix(1.0952381 0 -.25806452 1.4193548 585.14538 239.62018)"/><path d="m66.42857-76.071426a7.5 11.071428 0 1 1 -.000003-.01033l-7.499997.01033z" transform="translate(333.16333 225.58339)"/><path d="m66.42857-76.071426a7.5 11.071428 0 1 1 -.000003-.01033l-7.499997.01033z" transform="matrix(1 .76190476 0 1 492.04176 184.47658)"/><path d="m66.42857-76.071426a7.5 11.071428 0 1 1 -.000003-.01033l-7.499997.01033z" transform="matrix(1 0 0 1.2903226 368.76919 250.98881)"/><path d="m66.42857-76.071426a7.5 11.071428 0 1 1 -.000003-.01033l-7.499997.01033z" transform="matrix(1 0 -.25806452 1.3870968 370.96997 260.5275)"/><path d="m66.42857-76.071426a7.5 11.071428 0 1 1 -.000003-.01033l-7.499997.01033z" transform="matrix(1 0 .32258065 1 486.03996 233.55256)"/><path d="m66.42857-76.071426a7.5 11.071428 0 1 1 -.000003-.01033l-7.499997.01033z" transform="matrix(1.047619 0 0 1.3225807 338.91122 248.04969)"/><path d="m66.42857-76.071426a7.5 11.071428 0 1 1 -.000003-.01033l-7.499997.01033z" transform="translate(401.10639 231.40356)"/><path d="m66.42857-76.071426a7.5 11.071428 0 1 1 -.000003-.01033l-7.499997.01033z" transform="translate(531.27146 214.70104)"/><path d="m66.42857-76.071426a7.5 11.071428 0 1 1 -.000003-.01033l-7.499997.01033z" transform="matrix(1 0 .25806452 1 561.29584 214.58901)"/><path d="m66.42857-76.071426a7.5 11.071428 0 1 1 -.000003-.01033l-7.499997.01033z" transform="matrix(1 0 -.25806452 1 602.31609 209.74129)"/><path d="m66.42857-76.071426a7.5 11.071428 0 1 1 -.000003-.01033l-7.499997.01033z" transform="translate(503.02129 224.0988)"/><path d="m66.42857-76.071426a7.5 11.071428 0 1 1 -.000003-.01033l-7.499997.01033z" transform="matrix(1 0 -.51612905 1 418.80726 230.07921)"/><path d="m66.42857-76.071426a7.5 11.071428 0 1 1 -.000003-.01033l-7.499997.01033z" transform="matrix(1.4285714 0 .25806452 1.2903226 557.73979 228.12821)"/><path d="m66.42857-76.071426a7.5 11.071428 0 1 1 -.000003-.01033l-7.499997.01033z" transform="matrix(1.0952381 0 -.25806452 1.4193548 418.78828 265.28979)"/><path d="m66.42857-76.071426a7.5 11.071428 0 1 1 -.000003-.01033l-7.499997.01033z" transform="translate(17.683988 214.73516)"/><path d="m66.42857-76.071426a7.5 11.071428 0 1 1 -.000003-.01033l-7.499997.01033z" transform="matrix(1 .76190476 0 1 186.85213 184.30059)"/><path d="m66.42857-76.071426a7.5 11.071428 0 1 1 -.000003-.01033l-7.499997.01033z" transform="matrix(1 0 0 1.2903226 100.26195 249.23193)"/><path d="m66.42857-76.071426a7.5 11.071428 0 1 1 -.000003-.01033l-7.499997.01033z" transform="matrix(1 0 -.25806452 1.3870968 11.870127 242.82973)"/><path d="m66.42857-76.071426a7.5 11.071428 0 1 1 -.000003-.01033l-7.499997.01033z" transform="matrix(1 0 .32258065 1 233.60234 229.21957)"/><path d="m66.42857-76.071426a7.5 11.071428 0 1 1 -.000003-.01033l-7.499997.01033z" transform="matrix(1.047619 0 0 1.3225807 86.061337 260.94003)"/><path d="m66.42857-76.071426a7.5 11.071428 0 1 1 -.000003-.01033l-7.499997.01033z" transform="translate(43.200646 212.97917)"/><path d="m66.42857-76.071426a7.5 11.071428 0 1 1 -.000003-.01033l-7.499997.01033z" transform="translate(233.40311 229.59683)"/><path d="m66.42857-76.071426a7.5 11.071428 0 1 1 -.000003-.01033l-7.499997.01033z" transform="matrix(1 0 .25806452 1 171.87486 238.1726)"/><path d="m66.42857-76.071426a7.5 11.071428 0 1 1 -.000003-.01033l-7.499997.01033z" transform="matrix(1 0 -.25806452 1 253.03571 220.84158)"/><path d="m66.42857-76.071426a7.5 11.071428 0 1 1 -.000003-.01033l-7.499997.01033z" transform="translate(164.61301 239.75963)"/><path d="m66.42857-76.071426a7.5 11.071428 0 1 1 -.000003-.01033l-7.499997.01033z" transform="matrix(1 0 -.51612905 1 17.984907 215.47392)"/><path d="m66.42857-76.071426a7.5 11.071428 0 1 1 -.000003-.01033l-7.499997.01033z" transform="matrix(1.4285714 0 .25806452 1.2903226 105.98715 254.38693)"/><path d="m66.42857-76.071426a7.5 11.071428 0 1 1 -.000003-.01033l-7.499997.01033z" transform="matrix(1.0952381 0 -.25806452 1.4193548 218.9714 260.50246)"/><path d="m66.42857-76.071426a7.5 11.071428 0 1 1 -.000003-.01033l-7.499997.01033z" transform="translate(66.489383 223.23217)"/><path d="m66.42857-76.071426a7.5 11.071428 0 1 1 -.000003-.01033l-7.499997.01033z" transform="matrix(1 .76190476 0 1 309.71555 174.54922)"/><path d="m66.42857-76.071426a7.5 11.071428 0 1 1 -.000003-.01033l-7.499997.01033z" transform="matrix(1 0 0 1.2903226 125.83383 255.70865)"/><path d="m66.42857-76.071426a7.5 11.071428 0 1 1 -.000003-.01033l-7.499997.01033z" transform="matrix(1 0 -.25806452 1.3870968 301.27577 251.10521)"/><path d="m66.42857-76.071426a7.5 11.071428 0 1 1 -.000003-.01033l-7.499997.01033z" transform="matrix(1 0 .32258065 1 246.13505 231.70641)"/><path d="m66.42857-76.071426a7.5 11.071428 0 1 1 -.000003-.01033l-7.499997.01033z" transform="matrix(1.047619 0 0 1.3225807 74.257578 251.75938)"/><path d="m66.42857-76.071426a7.5 11.071428 0 1 1 -.000003-.01033l-7.499997.01033z" transform="translate(138.47305 239.15386)"/><path d="m66.42857-76.071426a7.5 11.071428 0 1 1 -.000003-.01033l-7.499997.01033z" transform="translate(260.05182 220.93612)"/><path d="m66.42857-76.071426a7.5 11.071428 0 1 1 -.000003-.01033l-7.499997.01033z" transform="matrix(1 0 .25806452 1 218.35537 233.451)"/><path d="m66.42857-76.071426a7.5 11.071428 0 1 1 -.000003-.01033l-7.499997.01033z" transform="matrix(1 0 -.25806452 1 -14.880794 215.97637)"/><path d="m66.42857-76.071426a7.5 11.071428 0 1 1 -.000003-.01033l-7.499997.01033z" transform="translate(300.49203 222.75773)"/><path d="m66.42857-76.071426a7.5 11.071428 0 1 1 -.000003-.01033l-7.499997.01033z" transform="matrix(1 0 -.51612905 1 210.72216 223.68738)"/><path d="m66.42857-76.071426a7.5 11.071428 0 1 1 -.000003-.01033l-7.499997.01033z" transform="matrix(1.4285714 0 .25806452 1.2903226 280.96431 239.91912)"/><path d="m66.42857-76.071426a7.5 11.071428 0 1 1 -.000003-.01033l-7.499997.01033z" transform="matrix(1.0952381 0 -.25806452 1.4193548 152.11433 272.02994)"/><path d="m66.42857-76.071426a7.5 11.071428 0 1 1 -.000003-.01033l-7.499997.01033z" transform="translate(-51.42857 222.3113)"/><path d="m66.42857-76.071426a7.5 11.071428 0 1 1 -.000003-.01033l-7.499997.01033z" transform="matrix(1 .76190476 0 1 818.19747 169.65337)"/><path d="m66.42857-76.071426a7.5 11.071428 0 1 1 -.000003-.01033l-7.499997.01033z" transform="matrix(1 0 0 1.2903226 697.76718 245.6964)"/><path d="m66.42857-76.071426a7.5 11.071428 0 1 1 -.000003-.01033l-7.499997.01033z" transform="matrix(1 0 -.25806452 1.3870968 726.04798 255.96171)"/><path d="m66.42857-76.071426a7.5 11.071428 0 1 1 -.000003-.01033l-7.499997.01033z" transform="matrix(1.047619 0 0 1.3225807 -33.641748 238.71667)"/><path d="m66.42857-76.071426a7.5 11.071428 0 1 1 -.000003-.01033l-7.499997.01033z" transform="translate(708.89117 228.63654)"/><path d="m66.42857-76.071426a7.5 11.071428 0 1 1 -.000003-.01033l-7.499997.01033z" transform="translate(793.5327 223.03084)"/><path d="m66.42857-76.071426a7.5 11.071428 0 1 1 -.000003-.01033l-7.499997.01033z" transform="matrix(1 0 .25806452 1 874.43596 219.98986)"/><path d="m66.42857-76.071426a7.5 11.071428 0 1 1 -.000003-.01033l-7.499997.01033z" transform="matrix(1 0 -.25806452 1 711.64496 229.42787)"/><path d="m66.42857-76.071426a7.5 11.071428 0 1 1 -.000003-.01033l-7.499997.01033z" transform="translate(805.5548 215.51597)"/><path d="m66.42857-76.071426a7.5 11.071428 0 1 1 -.000003-.01033l-7.499997.01033z" transform="matrix(1 0 -.51612905 1 685.19067 223.05006)"/><path d="m66.42857-76.071426a7.5 11.071428 0 1 1 -.000003-.01033l-7.499997.01033z" transform="matrix(1.4285714 0 .25806452 1.2903226 642.37816 240.2448)"/><path d="m66.42857-76.071426a7.5 11.071428 0 1 1 -.000003-.01033l-7.499997.01033z" transform="matrix(1.0952381 0 -.25806452 1.4193548 731.62382 262.52277)"/><path d="m66.42857-76.071426a7.5 11.071428 0 1 1 -.000003-.01033l-7.499997.01033z" transform="translate(1039.2663 218.68648)"/><path d="m66.42857-76.071426a7.5 11.071428 0 1 1 -.000003-.01033l-7.499997.01033z" transform="matrix(1 .76190476 0 1 843.07609 174.04415)"/><path d="m66.42857-76.071426a7.5 11.071428 0 1 1 -.000003-.01033l-7.499997.01033z" transform="matrix(1.1683588 0 0 1.427182 1013.1807 255.00806)"/><path d="m66.42857-76.071426a7.5 11.071428 0 1 1 -.000003-.01033l-7.499997.01033z" transform="matrix(1 0 -.25806452 1.3870968 642.70733 242.01384)"/><path d="m66.42857-76.071426a7.5 11.071428 0 1 1 -.000003-.01033l-7.499997.01033z" transform="matrix(1.047619 0 0 1.3225807 828.33645 240.14263)"/><path d="m66.42857-76.071426a7.5 11.071428 0 1 1 -.000003-.01033l-7.499997.01033z" transform="translate(-19.110751 218.44573)"/><path d="m66.42857-76.071426a7.5 11.071428 0 1 1 -.000003-.01033l-7.499997.01033z" transform="translate(-7.638605 216.39043)"/><path d="m66.42857-76.071426a7.5 11.071428 0 1 1 -.000003-.01033l-7.499997.01033z" transform="matrix(1 0 .25806452 1 834.54843 224.35962)"/><path d="m66.42857-76.071426a7.5 11.071428 0 1 1 -.000003-.01033l-7.499997.01033z" transform="matrix(1 0 -.25806452 1 751.31991 223.55251)"/><path d="m66.42857-76.071426a7.5 11.071428 0 1 1 -.000003-.01033l-7.499997.01033z" transform="translate(781.32464 230.33387)"/><path d="m66.42857-76.071426a7.5 11.071428 0 1 1 -.000003-.01033l-7.499997.01033z" transform="matrix(1 0 -.51612905 1 648.62329 217.62646)"/><path d="m66.42857-76.071426a7.5 11.071428 0 1 1 -.000003-.01033l-7.499997.01033z" transform="matrix(1.4285714 0 .25806452 1.2903226 -43.799733 243.95973)"/><path d="m66.42857-76.071426a7.5 11.071428 0 1 1 -.000003-.01033l-7.499997.01033z" transform="matrix(1.0952381 0 -.25806452 1.4193548 649.61446 251.32181)"/><path d="m66.42857-76.071426a7.5 11.071428 0 1 1 -.000003-.01033l-7.499997.01033z" transform="translate(878.33394 233.42298)"/><path d="m66.42857-76.071426a7.5 11.071428 0 1 1 -.000003-.01033l-7.499997.01033z" transform="matrix(1 0 0 1.2903226 937.67841 249.23194)"/><path d="m66.42857-76.071426a7.5 11.071428 0 1 1 -.000003-.01033l-7.499997.01033z" transform="matrix(1 0 -.25806452 1.3870968 928.07849 244.85003)"/><path d="m66.42857-76.071426a7.5 11.071428 0 1 1 -.000003-.01033l-7.499997.01033z" transform="matrix(1.047619 0 0 1.5962995 1005.8052 267.53885)"/><path d="m66.42857-76.071426a7.5 11.071428 0 1 1 -.000003-.01033l-7.499997.01033z" transform="matrix(1 0 -.25806452 1 1031.3583 218.31619)"/><path d="m66.42857-76.071426a7.5 11.071428 0 1 1 -.000003-.01033l-7.499997.01033z" transform="matrix(1 0 -.51612905 1 911.99022 227.59575)"/><path d="m66.42857-76.071426a7.5 11.071428 0 1 1 -.000003-.01033l-7.499997.01033z" transform="matrix(1.4285714 0 .25806452 1.2903226 987.85033 243.78033)"/><path d="m66.42857-76.071426a7.5 11.071428 0 1 1 -.000003-.01033l-7.499997.01033z" transform="matrix(1.0952381 0 -.25806452 1.4193548 864.96396 254.44155)"/><path d="m66.42857-76.071426a7.5 11.071428 0 1 1 -.000003-.01033l-7.499997.01033z" transform="matrix(1 0 0 1.2903226 899.61068 256.71881)"/><path d="m66.42857-76.071426a7.5 11.071428 0 1 1 -.000003-.01033l-7.499997.01033z" transform="matrix(1 0 -.25806452 1.3870968 894.23531 259.18643)"/><path d="m66.42857-76.071426a7.5 11.071428 0 1 1 -.000003-.01033l-7.499997.01033z" transform="matrix(1.047619 0 0 1.3225807 952.08014 259.33553)"/><path d="m66.42857-76.071426a7.5 11.071428 0 1 1 -.000003-.01033l-7.499997.01033z" transform="translate(925.38189 233.59802)"/><path d="m66.42857-76.071426a7.5 11.071428 0 1 1 -.000003-.01033l-7.499997.01033z" transform="translate(979.28044 225.98688)"/><path d="m66.42857-76.071426a7.5 11.071428 0 1 1 -.000003-.01033l-7.499997.01033z" transform="matrix(1 0 -.25806452 1 848.79964 225.06774)"/><path d="m66.42857-76.071426a7.5 11.071428 0 1 1 -.000003-.01033l-7.499997.01033z" transform="matrix(1.4285714 0 .25806452 1.2903226 1141.1092 249.0105)"/><path d="m66.42857-76.071426a7.5 11.071428 0 1 1 -.000003-.01033l-7.499997.01033z" transform="matrix(1.0952381 0 -.25806452 1.4193548 940.03332 262.43349)"/><path d="m66.42857-76.071426a7.5 11.071428 0 1 1 -.000003-.01033l-7.499997.01033z" transform="translate(1086.9305 217.26054)"/><path d="m66.42857-76.071426a7.5 11.071428 0 1 1 -.000003-.01033l-7.499997.01033z" transform="matrix(1 0 0 1.2903226 1136.1734 242.66595)"/><path d="m66.42857-76.071426a7.5 11.071428 0 1 1 -.000003-.01033l-7.499997.01033z" transform="matrix(1 0 -.25806452 1.3870968 1083.1369 235.75866)"/><path d="m66.42857-76.071426a7.5 11.071428 0 1 1 -.000003-.01033l-7.499997.01033z" transform="translate(1154.3685 224.59593)"/><path d="m66.42857-76.071426a7.5 11.071428 0 1 1 -.000003-.01033l-7.499997.01033z" transform="translate(1165.7739 221.01053)"/><path d="m66.42857-76.071426a7.5 11.071428 0 1 1 -.000003-.01033l-7.499997.01033z" transform="matrix(1 0 -.51612905 1 1038.744 207.89777)"/><path d="m66.42857-76.071426a7.5 11.071428 0 1 1 -.000003-.01033l-7.499997.01033z" transform="matrix(1.2879946 0 .23266999 1.2903226 1211.7999 243.73997)"/><path d="m66.42857-76.071426a7.5 11.071428 0 1 1 -.000003-.01033l-7.499997.01033z" transform="matrix(1.0952381 0 -.25806452 1.4193548 1039.2153 237.77403)"/><path d="m66.42857-76.071426a7.5 11.071428 0 1 1 -.000003-.01033l-7.499997.01033z" transform="matrix(1 .76190476 0 1 1176.4264 170.5086)"/><path d="m66.42857-76.071426a7.5 11.071428 0 1 1 -.000003-.01033l-7.499997.01033z" transform="matrix(1 0 -.25806452 1.3870968 1107.3775 240.49861)"/><path d="m66.42857-76.071426a7.5 11.071428 0 1 1 -.000003-.01033l-7.499997.01033z" transform="matrix(1 0 .25806452 1 1217.9013 222.33931)"/><path d="m66.42857-76.071426a7.5 11.071428 0 1 1 -.000003-.01033l-7.499997.01033z" transform="translate(1186.9009 224.77804)"/><path d="m66.42857-76.071426a7.5 11.071428 0 1 1 -.000003-.01033l-7.499997.01033z" transform="matrix(1.0952381 0 -.25806452 1.4193548 1088.0206 244.25074)"/><path d="m66.42857-76.071426a7.5 11.071428 0 1 1 -.000003-.01033l-7.499997.01033z" transform="matrix(1 0 -.25806452 1.3870968 204.87272 253.77378)"/><path d="m66.42857-76.071426a7.5 11.071428 0 1 1 -.000003-.01033l-7.499997.01033z" transform="matrix(1.047619 0 0 1.5962995 -13.829142 256.17689)"/><path d="m66.42857-76.071426a7.5 11.071428 0 1 1 -.000003-.01033l-7.499997.01033z" transform="matrix(1.0952381 0 -.25806452 1.4193548 447.4381 255.26921)"/><path d="m66.42857-76.071426a7.5 11.071428 0 1 1 -.000003-.01033l-7.499997.01033z" transform="translate(1182.6472 206.30694)"/><path d="m66.42857-76.071426a7.5 11.071428 0 1 1 -.000003-.01033l-7.499997.01033z" transform="matrix(1.1683588 0 0 1.427182 1156.5616 242.62851)"/><path d="m66.42857-76.071426a7.5 11.071428 0 1 1 -.000003-.01033l-7.499997.01033z" transform="matrix(1.047619 0 0 1.5962995 1149.1861 255.1593)"/><path d="m66.42857-76.071426a7.5 11.071428 0 1 1 -.000003-.01033l-7.499997.01033z" transform="matrix(1 0 -.25806452 1 1176.7392 213.93665)"/><path d="m66.42857-76.071426a7.5 11.071428 0 1 1 -.000003-.01033l-7.499997.01033z" transform="matrix(1.4285714 0 .25806452 1.2903226 1131.2312 231.40078)"/><path d="m66.42857-76.071426a7.5 11.071428 0 1 1 -.000003-.01033l-7.499997.01033z" transform="translate(1122.6614 213.60733)"/><path d="m66.42857-76.071426a7.5 11.071428 0 1 1 -.000003-.01033l-7.499997.01033z" transform="matrix(1 0 0 1.2903226 1016.9146 226.24579)"/><path d="m66.42857-76.071426a7.5 11.071428 0 1 1 -.000003-.01033l-7.499997.01033z" transform="translate(1035.1098 208.17577)"/><path d="m66.42857-76.071426a7.5 11.071428 0 1 1 -.000003-.01033l-7.499997.01033z" transform="translate(1046.5152 204.59038)"/><path d="m66.42857-76.071426a7.5 11.071428 0 1 1 -.000003-.01033l-7.499997.01033z" transform="matrix(1.2879946 0 .23266999 1.2903226 1092.5412 227.31981)"/><path d="m66.42857-76.071426a7.5 11.071428 0 1 1 -.000003-.01033l-7.499997.01033z" transform="matrix(1 .76190476 0 1 1055.1677 156.08845)"/><path d="m66.42857-76.071426a7.5 11.071428 0 1 1 -.000003-.01033l-7.499997.01033z" transform="matrix(1 0 .25806452 1 1098.6426 205.91916)"/><path d="m66.42857-76.071426a7.5 11.071428 0 1 1 -.000003-.01033l-7.499997.01033z" transform="translate(1067.6422 208.35788)"/></g></svg>